<svg xmlns="http://www.w3.org/2000/svg" viewBox="0 0 1200 675" role="img" aria-label="Portfolio CMS Manager cover">
  <defs>
    <linearGradient id="bg" x1="0" y1="0" x2="1" y2="1"><stop stop-color="#050812"/><stop offset="1" stop-color="#1b1638"/></linearGradient>
    <radialGradient id="glow" cx="72%" cy="18%" r="70%"><stop stop-color="#54d7e8" stop-opacity=".25"/><stop offset="1" stop-color="#9b7cff" stop-opacity="0"/></radialGradient>
    <filter id="shadow" x="-20%" y="-20%" width="140%" height="140%"><feDropShadow dx="0" dy="20" stdDeviation="18" flood-color="#000" flood-opacity=".55"/></filter>
  </defs>
  <rect width="1200" height="675" fill="url(#bg)"/>
  <rect width="1200" height="675" fill="url(#glow)"/>
  <g opacity=".18" stroke="#7ca2de" stroke-width="1"><path d="M0 45h1200M0 105h1200M0 165h1200M0 225h1200M0 285h1200M0 345h1200M0 405h1200M0 465h1200M0 525h1200M0 585h1200M0 645h1200"/><path d="M45 0v675M105 0v675M165 0v675M225 0v675M285 0v675M345 0v675M405 0v675M465 0v675M525 0v675M585 0v675M645 0v675M705 0v675M765 0v675M825 0v675M885 0v675M945 0v675M1005 0v675M1065 0v675M1125 0v675"/></g>
  <g filter="url(#shadow)">
    <rect x="72" y="76" width="1056" height="526" rx="34" fill="#0b1222" stroke="#54d7e8" stroke-opacity=".62" stroke-width="2"/>
    <rect x="104" y="118" width="344" height="420" rx="20" fill="#111b2e" stroke="#344159"/>
    <rect x="474" y="118" width="590" height="420" rx="20" fill="#080d18" stroke="#344159"/>
    <text x="126" y="162" fill="#54d7e8" font-family="IBM Plex Mono, monospace" font-size="15" font-weight="700">PROJECT INPUT</text>
    <text x="500" y="162" fill="#9b7cff" font-family="IBM Plex Mono, monospace" font-size="15" font-weight="700">GENERATED OUTPUT</text>
    <g font-family="Manrope, Arial, sans-serif">
      <text x="126" y="218" fill="#f5f8ff" font-size="28" font-weight="800">Project title</text>
      <rect x="126" y="240" width="278" height="34" rx="17" fill="#202b3f"/>
      <rect x="126" y="296" width="220" height="28" rx="14" fill="#202b3f"/>
      <rect x="126" y="340" width="278" height="92" rx="16" fill="#202b3f"/>
      <rect x="126" y="456" width="76" height="28" rx="14" fill="#54d7e8" opacity=".75"/>
      <rect x="214" y="456" width="92" height="28" rx="14" fill="#9b7cff" opacity=".75"/>
      <rect x="318" y="456" width="86" height="28" rx="14" fill="#b8de65" opacity=".70"/>
    </g>
    <g>
      <rect x="514" y="206" width="230" height="270" rx="22" fill="#101829" stroke="#54d7e8" stroke-opacity=".45"/>
      <rect x="534" y="226" width="190" height="84" rx="14" fill="#202b3f"/>
      <rect x="534" y="336" width="152" height="18" rx="9" fill="#f5f8ff" opacity=".9"/>
      <rect x="534" y="370" width="172" height="12" rx="6" fill="#a6b3d2" opacity=".55"/>
      <rect x="534" y="392" width="130" height="12" rx="6" fill="#a6b3d2" opacity=".45"/>
      <rect x="534" y="438" width="56" height="18" rx="9" fill="#344159"/>
      <rect x="600" y="438" width="76" height="18" rx="9" fill="#344159"/>
    </g>
    <g>
      <rect x="782" y="178" width="242" height="326" rx="22" fill="#101829" stroke="#9b7cff" stroke-opacity=".45"/>
      <rect x="810" y="214" width="160" height="22" rx="11" fill="#f5f8ff" opacity=".92"/>
      <rect x="810" y="264" width="174" height="12" rx="6" fill="#a6b3d2" opacity=".55"/>
      <rect x="810" y="292" width="146" height="12" rx="6" fill="#a6b3d2" opacity=".45"/>
      <rect x="810" y="342" width="174" height="12" rx="6" fill="#54d7e8" opacity=".72"/>
      <rect x="810" y="370" width="128" height="12" rx="6" fill="#9b7cff" opacity=".72"/>
      <rect x="810" y="420" width="174" height="42" rx="12" fill="#202b3f"/>
    </g>
    <path d="M418 330h82" stroke="#54d7e8" stroke-width="3"/><path d="M488 316l18 14-18 14" fill="none" stroke="#54d7e8" stroke-width="3"/>
  </g>
  <text x="92" y="640" fill="#f5f8ff" font-family="Manrope, Arial, sans-serif" font-size="34" font-weight="800">Portfolio CMS / Project Gallery Manager</text>
  <text x="94" y="604" fill="#54d7e8" font-family="IBM Plex Mono, monospace" font-size="16" font-weight="700">DESKTOP CMS · STATIC SITE GENERATOR · EXE APP</text>
</svg>
