<svg xmlns="http://www.w3.org/2000/svg" viewBox="0 0 512 512" role="img" aria-labelledby="logoTitle logoDesc">
  <title id="logoTitle">t8pium logo mark</title>
  <desc id="logoDesc">Transparent vector version of the t8pium logo mark.</desc>
  <path fill="currentColor" fill-rule="evenodd" d="M 79 46 L 63 109 L 36 170 L 43 228 L 61 258 L 95 286 L 105 328 L 133 370 L 168 397 L 223 414 L 214 437 L 155 452 L 149 463 L 360 465 L 356 452 L 297 437 L 288 414 L 337 400 L 378 370 L 406 328 L 416 286 L 443 266 L 469 226 L 474 165 L 448 109 L 433 47 L 421 47 L 398 75 L 216 77 L 113 75 L 103 70 L 90 47 Z M 290 147 L 318 164 L 339 188 L 354 225 L 359 261 L 359 274 L 355 277 L 323 278 L 305 273 L 299 275 L 307 285 L 323 294 L 356 299 L 357 301 L 348 340 L 335 365 L 319 382 L 291 398 L 287 395 Z M 221 147 L 218 394 L 216 398 L 190 385 L 169 364 L 153 333 L 146 300 L 149 298 L 178 294 L 199 281 L 206 271 L 201 270 L 184 276 L 149 275 L 145 271 L 151 227 L 166 190 L 192 162 Z M 401 109 L 419 121 L 440 149 L 453 190 L 449 224 L 435 248 L 416 266 L 414 263 L 408 229 L 391 187 L 359 149 L 318 124 L 316 121 Z M 112 109 L 196 121 L 191 126 L 156 147 L 127 178 L 106 224 L 99 266 L 91 261 L 74 239 L 65 211 L 70 172 L 88 137 Z"/>
</svg>
